<?xml version="1.0" encoding="UTF-8"?>
<svg width="300px" height="200px" version="1.0" viewBox="0 0 1280.000000 851.000000" xmlns="http://www.w3.org/2000/svg">
<title>Approved logo</title>
<g transform="translate(0 851) scale(.1 -.1)" fill="#8bc34a">
<path d="m5760 7640c-63-4-162-10-220-14-1359-83-2707-412-3478-847-531-300-836-620-928-974-23-91-25-113-21-240 4-116 10-155 32-225 71-223 233-446 458-629l79-64 25 27c13 15 23 30 21 35s-37 36-78 69c-201 161-353 366-426 577-26 74-28 92-29 230 0 171 14 235 87 380 61 120 120 197 248 326 197 197 401 335 745 504 485 238 1040 416 1720 550 211 42 292 56 510 89 330 51 714 91 1115 118 266 18 1374 18 1645 0 1043-69 1911-225 2675-481 1285-432 1927-1066 1729-1708-219-708-1426-1316-3170-1597-264-42-546-78-754-96-71-6-179-16-240-21-545-49-1569-49-2130 1-305 27-360 32-515 51-363 44-633 88-1e3 164-172 36-484 114-488 123-27 77-99 134-225 177-73 26-86 27-183 22-90-6-115-12-177-40-40-19-95-54-123-78-28-25-67-56-88-69-36-22-42-22-90-10-28 7-89 25-135 41-71 24-100 29-184 29-120 0-163-16-227-86-38-42-90-133-90-161 0-6-15-15-32-18-81-18-133-59-199-159-49-75-73-155-100-336-41-279-70-346-207-474-52-48-105-94-118-102-13-9-36-41-50-71-24-48-28-70-34-201-6-139-4-157 27-332 19-102 40-210 48-240s25-111 39-180c33-162 47-215 91-330 71-187 84-226 98-300 9-41 18-106 21-145 5-59 3-73-12-92-10-12-81-53-158-92-179-92-348-219-437-329-57-72-101-237-107-404 0-5 580-8 1289-8h1288l12 57c15 78 14 171-4 240-8 31-15 72-15 91 0 18-7 47-16 65-12 21-17 61-19 122-1 62-7 100-18 122-23 43-21 77 7 165 33 100 79 193 138 280 162 239 209 318 329 548 73 140 159 300 192 355s84 145 112 200l52 100 6 125c4 69 18 190 32 269 16 91 25 182 25 247 0 56 5 124 11 151 19 84 2 123-84 187-40 29-108 75-152 100-118 69-163 109-222 195-70 103-182 211-218 211-30 0-61-14-92-43-28-25-45-18-61 28-13 34-12 38 9 61 12 13 28 24 35 24s105-22 218-50c625-152 1202-238 2001-297 345-25 1394-25 1740 0 793 58 1389 147 2020 302 951 233 1652 559 2064 959 236 230 349 435 380 694 12 94 2 205-30 321-162 600-1015 1141-2329 1479-272 70-752 168-970 198-19 3-78 11-130 19-205 30-251 35-425 54-176 19-366 35-535 46-47 3-157 10-245 15-181 11-1179 11-1355 0z"/>
<path d="m3296 6487c-28-28-85-145-242-494-102-229-109-239-150-208-32 24-73 19-85-11-13-35 10-70 56-90l34-14-50-112c-94-210-119-282-119-350 0-29 6-41 24-53 22-15 27-15 54-1 45 23 96 89 110 141 15 57 10 66-21 37-67-63-49 0 77 270 25 52 31 58 64 63 20 3 91 20 157 37s129 33 141 35c20 4 21-2 32-204 7-114 12-230 12-258 0-103 31-154 86-141 33 9 45 36 34 77-9 33-27 300-32 472-3 105-11 97 139 135 58 15 104 32 102 37-5 12-89 13-180 1l-66-8-7 138c-16 326-35 482-61 504-7 6-29 14-48 17-29 4-40 1-61-20zm52-457c9-152 9-205 1-211-16-9-218-49-251-49-16 0-28 3-28 6 0 8 196 392 220 432 37 61 44 40 58-178z"/>
<path d="m9536 6470c-27-33-28-35-51-225-9-71-23-157-31-189-14-58-112-316-120-316-2 0-18 9-36 20-52 32-187 28-257-6-57-29-124-108-177-208-26-50-37-60-154-130-160-96-306-172-347-181-43-9-109 11-128 38-9 13-15 43-15 77 0 89 5 97 60 104 91 12 179 108 216 233 37 127-63 226-177 176-112-50-239-318-239-502 1-151 96-241 243-229 95 8 207 69 385 212 45 36 84 66 86 66s-3-26-10-57c-19-81-17-150 6-200 20-46 69-83 109-83 45 0 115 43 181 109 62 63 227 298 284 406l27 50-6-50c-26-225-14-329 46-379 26-22 40-26 92-26 89 0 102 13 41 42-68 32-84 67-84 181 0 97 12 189 41 315 29 128 99 548 106 637 9 130-33 183-91 115zm-1139-756c-10-63-38-105-81-125-56-25-65-11-36 51 26 55 94 125 112 114 6-4 8-21 5-40zm870-57c16-16 16-19-1-54-26-54-143-227-204-303-53-64-122-120-149-120-39 0-40 123-2 225 29 79 116 203 169 243 41 32 48 34 107 30 42-3 69-10 80-21z"/>
<path d="m10102 6458c-5-7-15-49-21-93-20-138-52-285-93-430-40-141-62-274-51-313 6-26 33-35 65-23 23 8 26 17 32 80 5 44 31 140 72 263 84 251 119 407 104 454-17 49-85 89-108 62z"/>
<path d="m6428 5929c-87-48-175-126-263-234-44-54-89-109-100-123l-21-24-37 94c-41 104-99 203-124 212-20 8-59-17-68-44-4-13 11-61 44-138 90-209 95-257 45-430-28-97-29-108-9-116 20-7 118 29 138 52 9 10 42 81 72 159 83 209 162 329 281 424 139 110 209 100 254-37 12-35 26-64 32-64 18 0 5 190-16 228-40 77-131 93-228 41z"/>
<path d="m8051 5924c-73-61-268-361-354-543-29-62-42-80-48-69-4 8-29 86-55 174-75 258-108 324-163 324-61 0-65-40-16-164 20-48 60-171 91-274 88-300 85-294 163-271 54 16 78 40 91 92 58 229 76 269 210 472 103 156 135 195 162 195 26 0 25 65-1 80-30 16-47 12-80-16z"/>
<path d="m7020 5884c-14-3-50-17-79-32-41-20-61-39-81-72-19-33-34-46-56-51-43-8-52-15-73-57-48-95-65-290-35-391 17-59 69-122 114-141 17-7 52-10 80-8 40 4 62 14 107 49 72 56 185 195 226 279 29 59 32 73 32 160 0 86-3 101-32 162-17 37-43 74-58 84-26 17-98 26-145 18zm85-126c61-48 70-133 26-244-53-136-151-251-233-276-37-11-41-10-66 15-21 22-27 38-30 91-4 62-3 64 24 78 31 14 30 12 18 109-10 74 45 163 135 220 54 35 89 37 126 7z"/>
<path d="m4411 5849c-60-12-117-47-193-121-64-63-170-197-211-270-12-21-24-38-28-38-3 0-6 19-7 43-6 94-82 328-118 358-21 17-63 2-69-24-4-13 3-59 14-103 33-132 60-287 67-386 6-88 5-97-25-172-62-153-100-511-60-552 15-14 20-14 58 5 22 12 47 31 55 44 26 39 46 136 75 352 23 174 32 216 51 246l24 36 36-39c35-36 40-38 96-38 116 1 267 72 355 168 83 90 151 270 135 355-18 97-135 159-255 136zm108-125c22-16 23-22 19-86-10-137-93-249-240-323-93-46-123-46-142 0-14 32-32 42-68 36-18-3-4 24 65 126 97 145 178 227 242 246 66 20 96 20 124 1z"/>
<path d="m5451 5849c-111-21-238-139-382-354l-54-80-7 63c-13 118-84 326-118 347-21 13-60-5-66-30-3-13 6-73 20-132 32-137 54-261 62-361 6-72 4-84-29-172-43-116-71-278-71-422-1-86 2-110 15-123 15-15 20-15 58 4 72 37 91 96 131 421 18 145 26 183 47 219 24 41 27 43 39 26 8-10 14-22 14-27 0-16 61-38 108-38 106 0 242 62 334 151 97 95 175 293 150 378-30 100-133 153-251 130zm110-130c19-19 21-30 17-84-11-135-95-247-241-319-96-47-123-47-143-1-12 29-19 35-44 35-17 0-30 5-30 11 0 19 144 223 200 282 81 86 195 122 241 76z"/>
<path d="m9865 5270c-22-25-25-91-5-115s56-18 84 16c54 63 45 112-21 117-30 2-44-2-58-18z"/>
</g>
</svg>
