<svg class="money-loan-logo" enable-background="new 0 0 512.002 512.002" viewBox="0 0 512.002 512.002" xmlns="http://www.w3.org/2000/svg">
<title>Loan form logo</title>
<path d="m503.34 331.43c-7.524-19.899-28.72-30.842-49.255-25.471l-168.23 43.492-80.476-58.833c-3.332-2.436-7.516-3.404-11.576-2.68l-175.35 31.237c-7.215 1.285-12.47 7.559-12.47 14.888v127.37c0 4.464 1.972 8.699 5.387 11.572 3.416 2.874 7.926 4.092 12.323 3.327l115.78-20.117 127.81 54.579c1.904 0.814 3.925 1.215 5.938 1.215 2.798 0 5.582-0.776 8.022-2.303l205.29-128.44c16.7-10.448 23.765-31.404 16.799-49.83zm-442.66 107.78l-24.444 4.247v-96.723l24.444-4.354v96.83zm409.82-83.585l-198.59 124.25-124.66-53.236c-1.886-0.805-3.906-1.215-5.939-1.215-0.864 0-1.73 0.074-2.589 0.224l-47.797 8.305v-96.963l101.83-18.14 80.919 59.156c0.075 0.056 0.151 0.112 0.228 0.166l2.634 1.927c3.402 2.487 5.612 6.154 6.221 10.325s-0.46 8.315-3.009 11.671c-5.074 6.681-14.438 8.155-21.317 3.354l-53.314-37.192c-6.85-4.778-16.276-3.099-21.054 3.751-4.779 6.849-3.099 16.276 3.75 21.055l53.314 37.192c8.013 5.589 17.165 8.286 26.233 8.286 13.833-2e-3 27.457-6.282 36.472-18.151 7.499-9.873 10.643-22.067 8.852-34.335-0.585-4.002-1.669-7.847-3.214-11.466l152.24-39.357c5.573-1.464 11.315 1.505 13.353 6.896 1.886 4.991-0.027 10.665-4.551 13.496z" fill="#26c534"/>
<path d="m256.01 0c-69.045 0-125.22 56.172-125.22 125.22s56.172 125.22 125.22 125.22 125.22-56.172 125.22-125.22-56.171-125.22-125.22-125.22zm0 220.19c-52.367 0-94.972-42.605-94.972-94.972 0-52.368 42.605-94.972 94.972-94.972 52.368 0 94.972 42.605 94.972 94.972s-42.605 94.972-94.972 94.972z" fill="#26c534"/>
<path d="m256.01 110.1c-2.168 0-3.933-1.764-3.933-3.933 0-2.167 1.764-3.932 3.933-3.932h19.055c8.351 0 15.122-6.771 15.122-15.122s-6.771-15.122-15.122-15.122h-3.933v-1.274c0-8.351-6.771-15.122-15.122-15.122s-15.122 6.771-15.122 15.122v4.813c-11.279 5.59-19.055 17.22-19.055 30.637 0 18.845 15.332 34.177 34.177 34.177 2.169 0 3.933 1.764 3.933 3.933 0 2.167-1.764 3.932-3.933 3.932h-19.055c-8.351 0-15.122 6.771-15.122 15.122s6.771 15.122 15.122 15.122h3.933v1.274c0 8.351 6.771 15.122 15.122 15.122s15.122-6.771 15.122-15.122v-4.813c11.279-5.59 19.055-17.22 19.055-30.637-1e-3 -18.845-15.332-34.177-34.177-34.177z" fill="#26c534"/>
</svg>
